<svg width="564" height="564" viewBox="0 0 564 564" fill="none" xmlns="http://www.w3.org/2000/svg">
<g clip-path="url(#clip0_9_30)">
<rect width="564" height="564" fill="black"/>
<path d="M136.5 453V415.5H185.5V140.5H136.5V103H273C319 103 354.5 114.667 379.5 138C404.833 161.333 417.5 197.167 417.5 245.5V310.5C417.5 359.167 404.833 395.167 379.5 418.5C354.5 441.5 319 453 273 453H136.5ZM227.5 415H273C307 415 332.667 406.667 350 390C367.333 373.333 376 347.5 376 312.5V244C376 208.333 367.333 182.333 350 166C332.667 149.667 307 141.5 273 141.5H227.5V415Z" fill="white"/>
</g>
<defs>
<clipPath id="clip0_9_30">
<rect width="564" height="564" fill="white"/>
</clipPath>
</defs>
</svg>
